<svg viewBox="0 0 24 24" width="24" height="24" fill="currentcolor"><path d="M18.868 15.81a3.358 3.358 0 014.537-.226A.363.363 0 0024 15.3a.37.37 0 00-.107-.26l-5.544-5.593-5.776 5.853 5.53 5.593a.364.364 0 00.398.08.363.363 0 00.118-.08.372.372 0 00.04-.493 3.444 3.444 0 01.209-4.588zM12.493 9.365a3.358 3.358 0 014.537-.226.364.364 0 00.595-.286.371.371 0 00-.107-.26L11.975 3 6.198 8.853l5.531 5.593a.365.365 0 00.398.08.364.364 0 00.118-.08.373.373 0 00.04-.493 3.444 3.444 0 01.208-4.588zM5.133 15.808a3.448 3.448 0 01.224 4.591.37.37 0 00.14.573.358.358 0 00.397-.08l5.531-5.593-5.789-5.853-5.531 5.592a.376.376 0 000 .521.364.364 0 00.487.013 3.358 3.358 0 014.541.236z"></path></svg>