<svg width="26" height="20" viewBox="0 0 26 20" fill="none" xmlns="http://www.w3.org/2000/svg">
<path d="M20.6106 14.1106C21.234 13.487 22.067 13.1175 22.9477 13.0741C23.8284 13.0307 24.6937 13.3165 25.3753 13.8758C25.449 13.9351 25.5419 13.9652 25.6363 13.9604C25.7308 13.9556 25.8201 13.9162 25.8874 13.8497C25.9231 13.8142 25.9514 13.7721 25.9707 13.7256C25.99 13.6792 26 13.6293 26 13.579C26 13.5287 25.99 13.4789 25.9707 13.4324C25.9514 13.386 25.9231 13.3438 25.8874 13.3083L20.066 7.5L14 13.579L19.8083 19.3874C19.8438 19.4231 19.886 19.4514 19.9324 19.4707C19.9789 19.49 20.0287 19.5 20.079 19.5C20.1293 19.5 20.1792 19.49 20.2256 19.4707C20.2721 19.4514 20.3142 19.4231 20.3497 19.3874C20.4186 19.3222 20.461 19.234 20.4689 19.1395C20.4767 19.045 20.4494 18.9509 20.3921 18.8753C19.8307 18.1957 19.5421 17.3315 19.5825 16.4508C19.6229 15.5702 19.9893 14.7361 20.6106 14.1106Z" fill="black"/>
<path d="M13.6106 7.11061C14.234 6.48698 15.067 6.11753 15.9477 6.07413C16.8284 6.03073 17.6937 6.31648 18.3753 6.8758C18.449 6.93512 18.5419 6.96525 18.6363 6.96044C18.7308 6.95562 18.8201 6.91621 18.8874 6.84971C18.9231 6.81425 18.9514 6.77207 18.9707 6.72562C18.99 6.67916 19 6.62934 19 6.57902C19 6.52871 18.99 6.47889 18.9707 6.43243C18.9514 6.38598 18.9231 6.3438 18.8874 6.30834L13.066 0.5L7 6.57902L12.8083 12.3874C12.8438 12.4231 12.886 12.4514 12.9324 12.4707C12.9789 12.49 13.0287 12.5 13.079 12.5C13.1293 12.5 13.1792 12.49 13.2256 12.4707C13.2721 12.4514 13.3142 12.4231 13.3497 12.3874C13.4186 12.3222 13.461 12.234 13.4689 12.1395C13.4767 12.045 13.4494 11.9509 13.3921 11.8753C12.8307 11.1957 12.5421 10.3315 12.5825 9.45084C12.6229 8.5702 12.9893 7.73605 13.6106 7.11061Z" fill="black"/>
<path d="M5.39119 14.1074C6.01519 14.7312 6.38483 15.5648 6.42824 16.4461C6.47165 17.3273 6.18572 18.1932 5.62605 18.8753C5.5656 18.9483 5.53446 19.0411 5.53868 19.1358C5.5429 19.2304 5.58218 19.3201 5.64888 19.3874C5.68436 19.4231 5.72654 19.4514 5.773 19.4707C5.81947 19.49 5.8693 19.5 5.91963 19.5C5.96996 19.5 6.01979 19.49 6.06626 19.4707C6.11272 19.4514 6.15491 19.4231 6.19038 19.3874L12 13.579L5.91963 7.5L0.110008 13.3083C0.0394695 13.3808 6.91268e-07 13.4779 6.8683e-07 13.579C6.82392e-07 13.6801 0.0394694 13.7773 0.110008 13.8497C0.178898 13.9143 0.269151 13.9514 0.363589 13.9538C0.458026 13.9562 0.55005 13.9238 0.622143 13.8628C1.30534 13.3038 2.17225 13.0192 3.05391 13.0644C3.93556 13.1096 4.76879 13.4814 5.39119 14.1074Z" fill="black"/>
</svg>
