<svg viewBox="0 0 24 24" width="24" height="24" fill="currentcolor" class="sc-jRQAMF foiSEG MuiSvgIcon-root MuiSvgIcon-fontSizeMedium" focusable="false" aria-hidden="true"><path fill-rule="evenodd" clip-rule="evenodd" d="M17.52 4.24c-1.3.8-3.03 1.7-4.97 2.2a.72.72 0 0 0-.55.7v6.3c0 .32.23.6.55.69 1.94.5 3.68 1.4 4.97 2.2.49.3 1.06.32 1.58.07.5-.26.8-.72.8-1.26V5.43c0-.54-.3-1-.8-1.26a1.6 1.6 0 0 0-1.58.07Z"></path><path d="M3 9.9a3 3 0 0 1 3-3h4.3c.39 0 .7.31.7.7v5.6a.7.7 0 0 1-.7.7H6a3 3 0 0 1-3-3v-1ZM12.15 18.16l-.86-2.92a.7.7 0 0 0-.67-.5h-3.9a.4.4 0 0 0-.37.53l1.65 5c.1.28.36.47.67.47h1.63c1.18 0 2.01-1.16 1.85-2.58Z"></path></svg>