<svg width="28" height="28" viewBox="0 0 28 28" fill="none" xmlns="http://www.w3.org/2000/svg">
<g clip-path="url(#clip0_15461_466422)">
<path d="M22.8157 5.38323C22.7956 5.24213 22.6746 5.1615 22.5738 5.1615C22.473 5.1615 20.4774 5.12118 20.4774 5.12118C20.4774 5.12118 18.8044 3.50858 18.6431 3.32716C18.4818 3.1659 18.1593 3.20621 18.0384 3.24653C18.0384 3.24653 17.7159 3.34732 17.1918 3.50858C17.1111 3.22637 16.97 2.88369 16.7886 2.52086C16.204 1.39204 15.3171 0.787309 14.2689 0.787309C14.1883 0.787309 14.1278 0.787309 14.0472 0.807466C14.0069 0.767151 13.9867 0.726836 13.9464 0.706678C13.4828 0.222897 12.8982 -0.0189935 12.1927 0.00116409C10.8421 0.0414792 9.49157 1.0292 8.38291 2.76275C7.61692 3.99236 7.03235 5.52433 6.85093 6.71363C5.2988 7.19741 4.21029 7.54009 4.16998 7.54009C3.38383 7.78198 3.36368 7.80214 3.26289 8.54797C3.22257 9.11238 1.1665 25.0167 1.1665 25.0167L18.4214 28L25.8998 26.1455C25.8797 26.1455 22.8359 5.52433 22.8157 5.38323ZM16.325 3.79078C15.9218 3.91173 15.4784 4.05283 14.9946 4.21409C14.9946 3.52874 14.8938 2.56117 14.5914 1.75487C15.6195 1.91613 16.1234 3.08527 16.325 3.79078ZM14.0875 4.47614C13.1804 4.75835 12.1927 5.06071 11.205 5.36307C11.4872 4.29472 12.0113 3.24653 12.6563 2.54102C12.8982 2.27897 13.2409 1.99676 13.6239 1.8355C14.027 2.62165 14.1076 3.73031 14.0875 4.47614ZM12.233 0.908254C12.5555 0.908254 12.8176 0.968727 13.0393 1.12999C12.6765 1.3114 12.3136 1.59361 11.9911 1.95645C11.1243 2.88369 10.4591 4.31488 10.1971 5.70575C9.37063 5.9678 8.56432 6.20969 7.83865 6.43142C8.32243 4.23425 10.1568 0.968727 12.233 0.908254Z" fill="#95BF47"/>
<path d="M22.5738 5.16169C22.4731 5.16169 20.4775 5.12137 20.4775 5.12137C20.4775 5.12137 18.8044 3.50877 18.6431 3.32735C18.5826 3.26688 18.502 3.22656 18.4214 3.22656V28.0002L25.8998 26.1457C25.8998 26.1457 22.856 5.52452 22.8359 5.38342C22.7956 5.24232 22.6746 5.16169 22.5738 5.16169Z" fill="#5E8E3E"/>
<path d="M14.2692 9.01199L13.4024 12.2574C13.4024 12.2574 12.4348 11.8139 11.2859 11.8945C9.59263 11.9953 9.59263 13.0637 9.59263 13.3257C9.69342 14.7771 13.5032 15.0996 13.7249 18.5062C13.8862 21.1872 12.3139 23.0215 10.0159 23.1626C7.27451 23.3037 5.7627 21.6911 5.7627 21.6911L6.34726 19.2117C6.34726 19.2117 7.87924 20.3607 9.08869 20.2801C9.87484 20.2397 10.1772 19.5746 10.1369 19.1311C10.0159 17.2363 6.91168 17.3572 6.7101 14.2328C6.54884 11.6123 8.26223 8.97168 12.0519 8.72979C13.5234 8.629 14.2692 9.01199 14.2692 9.01199Z" fill="white"/>
</g>
<defs>
<clipPath id="clip0_15461_466422">
<rect width="28" height="28" fill="white"/>
</clipPath>
</defs>
</svg>
